<svg width="24" height="26" viewBox="0 0 24 26" fill="none" xmlns="http://www.w3.org/2000/svg">
<path d="M8.00001 23.2792H16C20.02 23.2792 20.74 21.5756 20.95 19.5016L21.7 11.0365C21.97 8.45458 21.27 6.34888 17 6.34888H7.00001C2.73001 6.34888 2.03001 8.45458 2.30001 11.0365L3.05001 19.5016C3.26001 21.5756 3.98001 23.2792 8.00001 23.2792Z" stroke="white" stroke-width="1.5" stroke-miterlimit="10" stroke-linecap="round" stroke-linejoin="round"/>
<path d="M8 6.34888V5.50236C8 3.62945 8 2.1163 11.2 2.1163H12.8C16 2.1163 16 3.62945 16 5.50236V6.34888" stroke="white" stroke-width="1.5" stroke-miterlimit="10" stroke-linecap="round" stroke-linejoin="round"/>
<path d="M14 13.7559V14.814C14 14.8246 14 14.8246 14 14.8352C14 15.9885 13.99 16.9303 12 16.9303C10.02 16.9303 10 15.9991 10 14.8458V13.7559C10 12.6977 10 12.6977 11 12.6977H13C14 12.6977 14 12.6977 14 13.7559Z" stroke="white" stroke-width="1.5" stroke-miterlimit="10" stroke-linecap="round" stroke-linejoin="round"/>
<path d="M21.65 11.6396C19.34 13.4173 16.7 14.4754 14 14.8352" stroke="white" stroke-width="1.5" stroke-miterlimit="10" stroke-linecap="round" stroke-linejoin="round"/>
<path d="M2.62 11.9253C4.87 13.5548 7.41 14.5389 10 14.8458" stroke="white" stroke-width="1.5" stroke-miterlimit="10" stroke-linecap="round" stroke-linejoin="round"/>
</svg>
