<svg width="100" height="100" viewBox="0 0 100 100" fill="none" xmlns="http://www.w3.org/2000/svg">
<path fill-rule="evenodd" clip-rule="evenodd" d="M44.6148 6.90802C41.9637 5.80987 39.0464 5.52255 36.2319 6.08238C33.4175 6.64221 30.8322 8.02405 28.8031 10.0532C26.774 12.0823 25.3922 14.6675 24.8323 17.482C24.2725 20.2964 24.5598 23.2137 25.658 25.8648C26.2483 27.29 27.0587 28.6039 28.0526 29.762L26.9102 29.7617C23.5002 29.7595 20.9643 29.7579 18.7997 30.4612C14.4506 31.8743 11.0409 35.284 9.62775 39.6331C8.92445 41.7977 8.9261 44.3336 8.92831 47.7436L8.92856 48.3334L8.92816 48.8127C8.9254 50.9892 8.92302 52.8704 9.45295 54.5014C10.5128 57.7633 13.0701 60.3206 16.3319 61.3804C16.6333 61.4783 16.9431 61.5581 17.2618 61.623L17.2618 70.4001C17.2618 73.3234 17.2617 75.736 17.4249 77.7003C17.5943 79.7408 17.9581 81.6153 18.8702 83.3711C20.2256 85.9803 22.353 88.1077 24.9622 89.4631C26.718 90.3752 28.5925 90.739 30.633 90.9084C32.5972 91.0716 35.0097 91.0715 37.9328 91.0715H62.0667C64.9898 91.0715 67.4026 91.0716 69.3668 90.9084C71.4074 90.739 73.2818 90.3752 75.0376 89.4631C77.6468 88.1077 79.7743 85.9803 81.1296 83.3711C82.0417 81.6153 82.4055 79.7408 82.575 77.7003C82.7381 75.7362 82.7381 73.3237 82.738 70.4007V61.623C83.0567 61.5581 83.3667 61.4783 83.668 61.3804C86.9299 60.3206 89.4872 57.7633 90.547 54.5014C91.0769 52.8705 91.0746 50.9892 91.0718 48.8128L91.0714 48.3334L91.0717 47.7436C91.0739 44.3336 91.0755 41.7977 90.3722 39.6331C88.9591 35.284 85.5493 31.8743 81.2002 30.4612C79.0357 29.7579 76.4998 29.7595 73.0898 29.7617L71.9474 29.762C72.9413 28.6039 73.7517 27.29 74.342 25.8648C75.4401 23.2137 75.7275 20.2964 75.1676 17.482C74.6078 14.6675 73.226 12.0823 71.1968 10.0532C69.1677 8.02405 66.5825 6.64221 63.768 6.08238C60.9536 5.52255 58.0363 5.80987 55.3852 6.90802C53.3076 7.76857 51.4666 9.09676 50 10.7794C48.5334 9.09676 46.6924 7.76857 44.6148 6.90802ZM46.4286 36.9048H27.5C23.2336 36.9048 21.9473 36.9489 21.007 37.2544C18.8325 37.961 17.1276 39.6659 16.421 41.8404C16.1155 42.7807 16.0714 44.067 16.0714 48.3334C16.0714 51.2703 16.1155 51.8918 16.2462 52.2942C16.5995 53.3814 17.4519 54.2339 18.5392 54.5872C18.9416 54.7179 19.563 54.762 22.5 54.762H46.4286V36.9048ZM53.5714 54.762V36.9048H72.5C76.7664 36.9048 78.0526 36.9489 78.993 37.2544C81.1675 37.961 82.8724 39.6659 83.579 41.8404C83.8845 42.7807 83.9286 44.067 83.9286 48.3334C83.9286 51.2703 83.8845 51.8918 83.7538 52.2942C83.4005 53.3814 82.548 54.2339 81.4608 54.5872C81.0584 54.7179 80.4369 54.762 77.5 54.762H53.5714ZM46.4286 61.9048H24.4047V70.2501C24.4047 73.3608 24.4075 75.4756 24.5432 77.1092C24.6753 78.7 24.9147 79.5121 25.2089 80.0784C25.8865 81.383 26.9503 82.4468 28.2549 83.1244C28.8212 83.4186 29.6333 83.658 31.2241 83.7901C32.8578 83.9258 34.9725 83.9286 38.0832 83.9286H46.4286V61.9048ZM53.5714 83.9286V61.9048H75.5952V70.2501C75.5952 73.3608 75.5923 75.4755 75.4566 77.1091C75.3245 78.7 75.0852 79.5121 74.791 80.0784C74.1133 81.383 73.0496 82.4468 71.745 83.1244C71.1786 83.4186 70.3665 83.658 68.7757 83.7901C67.1421 83.9258 65.0274 83.9286 61.9166 83.9286H53.5714ZM60.9375 27.6786H53.5714V20.3125C53.5714 18.8557 54.0034 17.4315 54.8128 16.2202C55.6222 15.0088 56.7726 14.0647 58.1186 13.5072C59.4646 12.9496 60.9457 12.8038 62.3745 13.088C63.8034 13.3722 65.1159 14.0738 66.1461 15.1039C67.1763 16.1341 67.8778 17.4466 68.162 18.8755C68.4462 20.3043 68.3004 21.7854 67.7429 23.1314C67.1853 24.4774 66.2412 25.6278 65.0299 26.4372C63.8185 27.2466 62.3944 27.6786 60.9375 27.6786ZM45.1872 16.2202C45.9966 17.4315 46.4286 18.8557 46.4286 20.3125V27.6786H39.0625C37.6056 27.6786 36.1815 27.2466 34.9701 26.4372C33.7588 25.6278 32.8146 24.4774 32.2571 23.1314C31.6996 21.7854 31.5537 20.3043 31.838 18.8755C32.1222 17.4466 32.8237 16.1341 33.8539 15.1039C34.8841 14.0738 36.1966 13.3722 37.6254 13.088C39.0543 12.8038 40.5354 12.9496 41.8814 13.5072C43.2273 14.0647 44.3778 15.0088 45.1872 16.2202Z" fill="#0F1729"/>
</svg>
