<svg width="100" height="100" viewBox="0 0 100 100" fill="none" xmlns="http://www.w3.org/2000/svg">
<path d="M50 91.6667C73.0119 91.6667 91.6667 73.0118 91.6667 50C91.6667 26.9881 73.0119 8.33331 50 8.33331C26.9881 8.33331 8.33334 26.9881 8.33334 50C8.33334 73.0118 26.9881 91.6667 50 91.6667Z" stroke="#0F1729" stroke-width="6.5" stroke-linecap="round" stroke-linejoin="round"/>
<path d="M33.3334 12.5H37.5C29.375 36.8333 29.375 63.1667 37.5 87.5H33.3334" stroke="#0F1729" stroke-width="6.5" stroke-linecap="round" stroke-linejoin="round"/>
<path d="M62.5 12.5C70.625 36.8333 70.625 63.1667 62.5 87.5" stroke="#0F1729" stroke-width="6.5" stroke-linecap="round" stroke-linejoin="round"/>
<path d="M12.5 66.6667V62.5C36.8333 70.625 63.1667 70.625 87.5 62.5V66.6667" stroke="#0F1729" stroke-width="6.5" stroke-linecap="round" stroke-linejoin="round"/>
<path d="M12.5 37.4999C36.8333 29.3749 63.1667 29.3749 87.5 37.4999" stroke="#0F1729" stroke-width="6.5" stroke-linecap="round" stroke-linejoin="round"/>
</svg>
