<svg width="100" height="100" viewBox="0 0 100 100" fill="none" xmlns="http://www.w3.org/2000/svg">
<path fill-rule="evenodd" clip-rule="evenodd" d="M20.9939 8.92859C21.0375 8.9286 21.0812 8.9286 21.125 8.9286L33.1728 8.92859C34.5857 8.92851 35.8572 8.92844 36.9146 9.01624C38.0473 9.11031 39.2501 9.32332 40.4254 9.93384C42.0561 10.7809 43.3858 12.1106 44.2329 13.7413C44.8434 14.9166 45.0564 16.1194 45.1504 17.2521C45.2383 18.3094 45.2382 19.5809 45.2381 20.9939V33.1728C45.2382 34.5858 45.2383 35.8573 45.1504 36.9146C45.0564 38.0473 44.8434 39.2501 44.2329 40.4254C43.3858 42.0561 42.0561 43.3858 40.4254 44.2329C39.2501 44.8434 38.0473 45.0564 36.9146 45.1505C35.8572 45.2383 34.5858 45.2382 33.1728 45.2381H20.9939C19.5809 45.2382 18.3094 45.2383 17.2521 45.1505C16.1194 45.0564 14.9166 44.8434 13.7413 44.2329C12.1106 43.3858 10.7809 42.0561 9.93381 40.4254C9.32329 39.2501 9.11028 38.0473 9.01621 36.9146C8.92841 35.8573 8.92848 34.5858 8.92856 33.1728L8.92857 21.125C8.92857 21.0812 8.92857 21.0375 8.92856 20.9939C8.92848 19.5809 8.92841 18.3095 9.01621 17.2521C9.11028 16.1194 9.32329 14.9166 9.93381 13.7413C10.7809 12.1106 12.1106 10.7809 13.7413 9.93384C14.9166 9.32332 16.1194 9.11031 17.2521 9.01624C18.3094 8.92844 19.5809 8.92851 20.9939 8.92859ZM17.0625 16.2606C17.0438 16.2674 17.0357 16.2716 17.034 16.2725C16.7078 16.4419 16.4419 16.7079 16.2725 17.034C16.2716 17.0358 16.2674 17.0438 16.2606 17.0626C16.2535 17.0821 16.2417 17.1183 16.2276 17.1772C16.1979 17.301 16.1626 17.5052 16.1346 17.8433C16.0743 18.569 16.0714 19.5397 16.0714 21.125V33.0417C16.0714 34.6271 16.0743 35.5977 16.1346 36.3235C16.1626 36.6615 16.1979 36.8657 16.2276 36.9895C16.2417 37.0484 16.2535 37.0846 16.2606 37.1042C16.2674 37.1229 16.2716 37.1309 16.2725 37.1327C16.4419 37.4589 16.7078 37.7248 17.034 37.8942C17.0357 37.8951 17.0438 37.8993 17.0625 37.9061C17.0821 37.9132 17.1183 37.925 17.1772 37.9391C17.301 37.9688 17.5052 38.0041 17.8432 38.0321C18.569 38.0924 19.5396 38.0953 21.125 38.0953H33.0417C34.627 38.0953 35.5977 38.0924 36.3234 38.0321C36.6615 38.0041 36.8657 37.9688 36.9895 37.9391C37.0484 37.925 37.0846 37.9132 37.1041 37.9061C37.1229 37.8993 37.1309 37.8951 37.1327 37.8942C37.4588 37.7248 37.7248 37.4589 37.8942 37.1327C37.8951 37.1309 37.8992 37.1229 37.9061 37.1042C37.9132 37.0846 37.925 37.0484 37.9391 36.9895C37.9688 36.8657 38.004 36.6615 38.0321 36.3235C38.0924 35.5977 38.0952 34.6271 38.0952 33.0417V21.125C38.0952 19.5397 38.0924 18.569 38.0321 17.8433C38.004 17.5052 37.9688 17.301 37.9391 17.1772C37.925 17.1183 37.9132 17.0821 37.9061 17.0626C37.8992 17.0438 37.8951 17.0358 37.8942 17.034C37.7248 16.7079 37.4588 16.4419 37.1327 16.2725C37.1309 16.2716 37.1229 16.2674 37.1041 16.2606C37.0846 16.2535 37.0484 16.2417 36.9895 16.2276C36.8657 16.1979 36.6615 16.1627 36.3234 16.1346C35.5977 16.0743 34.627 16.0715 33.0417 16.0715H21.125C19.5396 16.0715 18.569 16.0743 17.8432 16.1346C17.5052 16.1627 17.301 16.1979 17.1772 16.2276C17.1183 16.2417 17.0821 16.2535 17.0625 16.2606ZM66.8272 8.92859H79.0061C80.4191 8.92851 81.6906 8.92844 82.7479 9.01624C83.8806 9.11031 85.0834 9.32332 86.2587 9.93384C87.8895 10.7809 89.2191 12.1106 90.0662 13.7413C90.6767 14.9166 90.8897 16.1194 90.9838 17.2521C91.0716 18.3095 91.0715 19.581 91.0714 20.994V33.1727C91.0715 34.5857 91.0716 35.8572 90.9838 36.9146C90.8897 38.0473 90.6767 39.2501 90.0662 40.4254C89.2191 42.0561 87.8895 43.3858 86.2587 44.2329C85.0834 44.8434 83.8806 45.0564 82.7479 45.1505C81.6906 45.2383 80.4191 45.2382 79.0061 45.2381H66.8272C65.4142 45.2382 64.1428 45.2383 63.0854 45.1505C61.9527 45.0564 60.7499 44.8434 59.5746 44.2329C57.9439 43.3858 56.6142 42.0561 55.7671 40.4254C55.1566 39.2501 54.9436 38.0473 54.8495 36.9146C54.7617 35.8573 54.7618 34.5858 54.7619 33.1728V20.9939C54.7618 19.5809 54.7617 18.3094 54.8495 17.2521C54.9436 16.1194 55.1566 14.9166 55.7671 13.7413C56.6142 12.1106 57.9439 10.7809 59.5746 9.93384C60.7499 9.32332 61.9527 9.11031 63.0854 9.01624C64.1428 8.92844 65.4143 8.92851 66.8272 8.92859ZM62.8959 16.2606C62.8771 16.2674 62.8691 16.2716 62.8673 16.2725C62.5412 16.4419 62.2752 16.7079 62.1058 17.034C62.1049 17.0358 62.1008 17.0438 62.0939 17.0626C62.0868 17.0821 62.075 17.1183 62.0609 17.1772C62.0312 17.301 61.996 17.5052 61.9679 17.8433C61.9076 18.569 61.9048 19.5397 61.9048 21.125V33.0417C61.9048 34.6271 61.9076 35.5977 61.9679 36.3235C61.996 36.6615 62.0312 36.8657 62.0609 36.9895C62.075 37.0484 62.0868 37.0846 62.0939 37.1042C62.1008 37.1229 62.1049 37.1309 62.1058 37.1327C62.2752 37.4589 62.5412 37.7248 62.8673 37.8942C62.8691 37.8951 62.8771 37.8993 62.8959 37.9061C62.9154 37.9132 62.9516 37.925 63.0105 37.9391C63.1343 37.9688 63.3385 38.0041 63.6766 38.0321C64.4023 38.0924 65.373 38.0953 66.9583 38.0953H78.875C80.4604 38.0953 81.431 38.0924 82.1568 38.0321C82.4948 38.0041 82.699 37.9688 82.8228 37.9391C82.8817 37.925 82.9179 37.9132 82.9375 37.9061C82.9562 37.8993 82.9643 37.8951 82.966 37.8942C83.2922 37.7248 83.5581 37.4589 83.7275 37.1327C83.7284 37.131 83.7326 37.1229 83.7394 37.1042C83.7465 37.0846 83.7583 37.0484 83.7724 36.9895C83.8021 36.8657 83.8374 36.6615 83.8654 36.3235C83.9257 35.5977 83.9286 34.6271 83.9286 33.0417V21.125C83.9286 19.5397 83.9257 18.569 83.8654 17.8433C83.8374 17.5052 83.8021 17.301 83.7724 17.1772C83.7583 17.1183 83.7465 17.0821 83.7394 17.0626C83.7326 17.0438 83.7284 17.0358 83.7275 17.034C83.5581 16.7079 83.2922 16.4419 82.966 16.2725C82.9643 16.2716 82.9562 16.2674 82.9375 16.2606C82.9179 16.2535 82.8817 16.2417 82.8228 16.2276C82.6991 16.1979 82.4948 16.1627 82.1568 16.1346C81.431 16.0743 80.4604 16.0715 78.875 16.0715H66.9583C65.373 16.0715 64.4023 16.0743 63.6766 16.1346C63.3385 16.1627 63.1343 16.1979 63.0105 16.2276C62.9516 16.2417 62.9154 16.2535 62.8959 16.2606ZM20.9939 54.7619H33.1728C34.5858 54.7618 35.8572 54.7618 36.9146 54.8496C38.0473 54.9436 39.2501 55.1567 40.4254 55.7672C42.0561 56.6143 43.3858 57.9439 44.2329 59.5747C44.8434 60.75 45.0564 61.9528 45.1504 63.0855C45.2383 64.1428 45.2382 65.4143 45.2381 66.8272V79.0062C45.2382 80.4191 45.2383 81.6906 45.1504 82.7479C45.0564 83.8806 44.8434 85.0834 44.2329 86.2587C43.3858 87.8895 42.0561 89.2191 40.4254 90.0662C39.2501 90.6767 38.0473 90.8898 36.9146 90.9838C35.8572 91.0716 34.5857 91.0715 33.1727 91.0715H20.994C19.581 91.0715 18.3095 91.0716 17.2521 90.9838C16.1194 90.8898 14.9166 90.6767 13.7413 90.0662C12.1106 89.2191 10.7809 87.8895 9.93381 86.2587C9.32329 85.0834 9.11028 83.8806 9.01621 82.7479C8.92841 81.6906 8.92848 80.4191 8.92856 79.0061V66.8273C8.92848 65.4143 8.92841 64.1428 9.01621 63.0855C9.11028 61.9528 9.32329 60.75 9.93381 59.5747C10.7809 57.9439 12.1106 56.6143 13.7413 55.7672C14.9166 55.1567 16.1194 54.9436 17.2521 54.8496C18.3094 54.7618 19.5809 54.7618 20.9939 54.7619ZM17.0625 62.094C17.0438 62.1008 17.0357 62.1049 17.034 62.1058C16.7078 62.2753 16.4419 62.5412 16.2725 62.8673C16.2716 62.8691 16.2674 62.8771 16.2606 62.8959C16.2535 62.9155 16.2417 62.9517 16.2276 63.0105C16.1979 63.1343 16.1626 63.3385 16.1346 63.6766C16.0743 64.4024 16.0714 65.373 16.0714 66.9584V78.875C16.0714 80.4604 16.0743 81.431 16.1346 82.1568C16.1626 82.4949 16.1979 82.6991 16.2276 82.8229C16.2417 82.8818 16.2535 82.9179 16.2606 82.9375C16.2674 82.9563 16.2716 82.9643 16.2725 82.9661C16.4419 83.2922 16.7078 83.5581 17.034 83.7276C17.0357 83.7285 17.0438 83.7326 17.0625 83.7394C17.0821 83.7466 17.1183 83.7584 17.1771 83.7725C17.3009 83.8021 17.5052 83.8374 17.8432 83.8655C18.569 83.9257 19.5396 83.9286 21.125 83.9286H33.0417C34.627 83.9286 35.5977 83.9257 36.3234 83.8655C36.6615 83.8374 36.8657 83.8021 36.9895 83.7725C37.0484 83.7584 37.0846 83.7466 37.1041 83.7394C37.1229 83.7326 37.1309 83.7285 37.1327 83.7276C37.4588 83.5581 37.7248 83.2922 37.8942 82.9661C37.8951 82.9643 37.8992 82.9563 37.9061 82.9375C37.9132 82.9179 37.925 82.8818 37.9391 82.8229C37.9688 82.6991 38.004 82.4949 38.0321 82.1568C38.0924 81.431 38.0952 80.4604 38.0952 78.875V66.9584C38.0952 65.373 38.0924 64.4024 38.0321 63.6766C38.004 63.3385 37.9688 63.1343 37.9391 63.0105C37.925 62.9517 37.9132 62.9155 37.9061 62.8959C37.8992 62.8771 37.8951 62.8691 37.8942 62.8673C37.7248 62.5412 37.4588 62.2753 37.1327 62.1058C37.1309 62.1049 37.1229 62.1008 37.1041 62.094C37.0846 62.0868 37.0484 62.075 36.9895 62.0609C36.8657 62.0313 36.6615 61.996 36.3234 61.9679C35.5977 61.9077 34.627 61.9048 33.0417 61.9048H21.125C19.5396 61.9048 18.569 61.9077 17.8432 61.9679C17.5052 61.996 17.301 62.0313 17.1772 62.0609C17.1183 62.075 17.0821 62.0868 17.0625 62.094ZM66.8272 54.7619H79.0061C80.4191 54.7618 81.6906 54.7618 82.7479 54.8496C83.8806 54.9436 85.0834 55.1567 86.2587 55.7672C87.8895 56.6143 89.2191 57.9439 90.0662 59.5747C90.6767 60.75 90.8897 61.9528 90.9838 63.0855C91.0716 64.1428 91.0715 65.4143 91.0714 66.8274V79.006C91.0715 80.4191 91.0716 81.6906 90.9838 82.7479C90.8897 83.8806 90.6767 85.0834 90.0662 86.2587C89.2191 87.8895 87.8894 89.2191 86.2587 90.0662C85.0834 90.6767 83.8806 90.8898 82.7479 90.9838C81.6905 91.0716 80.419 91.0715 79.006 91.0715H66.8273C65.4143 91.0715 64.1428 91.0716 63.0854 90.9838C61.9527 90.8898 60.7499 90.6767 59.5746 90.0662C57.9439 89.2191 56.6143 87.8895 55.7671 86.2587C55.1566 85.0834 54.9436 83.8806 54.8495 82.7479C54.7617 81.6906 54.7618 80.4191 54.7619 79.0062V66.8272C54.7618 65.4142 54.7617 64.1428 54.8495 63.0855C54.9436 61.9528 55.1566 60.75 55.7671 59.5747C56.6142 57.9439 57.9439 56.6143 59.5746 55.7672C60.7499 55.1567 61.9527 54.9436 63.0854 54.8496C64.1428 54.7618 65.4142 54.7618 66.8272 54.7619ZM62.8959 62.094C62.8771 62.1008 62.8691 62.1049 62.8673 62.1058C62.5412 62.2753 62.2752 62.5412 62.1058 62.8673C62.1049 62.8691 62.1008 62.8771 62.0939 62.8959C62.0868 62.9155 62.075 62.9516 62.0609 63.0105C62.0312 63.1343 61.996 63.3385 61.9679 63.6766C61.9076 64.4024 61.9048 65.373 61.9048 66.9584V78.875C61.9048 80.4604 61.9076 81.431 61.9679 82.1568C61.996 82.4949 62.0312 82.6991 62.0609 82.8229C62.075 82.8818 62.0868 82.9179 62.0939 82.9375C62.1008 82.9563 62.1049 82.9643 62.1058 82.9661C62.2752 83.2922 62.5412 83.5581 62.8673 83.7276C62.8684 83.7281 62.8717 83.7298 62.8781 83.7325C62.8825 83.7344 62.8883 83.7367 62.8959 83.7394C62.9154 83.7466 62.9516 83.7584 63.0105 83.7725C63.1343 83.8021 63.3385 83.8374 63.6766 83.8655C64.4023 83.9257 65.373 83.9286 66.9583 83.9286H78.875C80.4604 83.9286 81.431 83.9257 82.1568 83.8655C82.4948 83.8374 82.6991 83.8021 82.8229 83.7725C82.8817 83.7584 82.9179 83.7466 82.9375 83.7394C82.9562 83.7326 82.9643 83.7285 82.966 83.7276C83.2922 83.5581 83.5581 83.2922 83.7275 82.9661C83.7284 82.9643 83.7326 82.9563 83.7394 82.9375C83.7465 82.9179 83.7583 82.8818 83.7724 82.8229C83.8021 82.6991 83.8374 82.4949 83.8654 82.1568C83.9257 81.431 83.9286 80.4604 83.9286 78.875V66.9584C83.9286 65.373 83.9257 64.4024 83.8654 63.6766C83.8374 63.3385 83.8021 63.1343 83.7724 63.0105C83.7583 62.9516 83.7465 62.9155 83.7394 62.8959C83.7339 62.8808 83.7302 62.8727 83.7284 62.8691C83.728 62.8683 83.7286 62.8695 83.7284 62.8691C83.559 62.543 83.2922 62.2753 82.966 62.1058C82.9643 62.1049 82.9562 62.1008 82.9375 62.094C82.9179 62.0868 82.8817 62.075 82.8229 62.0609C82.6991 62.0313 82.4948 61.996 82.1568 61.9679C81.431 61.9077 80.4604 61.9048 78.875 61.9048H66.9583C65.373 61.9048 64.4023 61.9077 63.6766 61.9679C63.3385 61.996 63.1343 62.0313 63.0105 62.0609C62.9516 62.075 62.9154 62.0868 62.8959 62.094Z" fill="#0F1729"/>
</svg>
