<svg width="82" height="40" viewBox="0 0 82 40" fill="none" xmlns="http://www.w3.org/2000/svg">
<path d="M61.7507 19.3056C59.9835 19.3056 58.4939 18.3799 57.5513 16.6967C54.9088 11.9755 62.5166 4.23311 62.8364 3.9049C63.4844 3.19798 64.5868 2.46582 65.5378 2.46582C66.2111 2.46582 66.7244 2.82769 66.96 3.48412C67.4986 4.93161 68.9882 12.0092 67.7006 15.2997C66.8506 17.513 64.1745 19.3056 61.7507 19.3056Z" fill="white"/>
<path d="M69.005 16.2003C67.9362 18.9354 64.6205 21.1655 61.6161 21.1655C59.3691 21.1655 57.4756 19.9957 56.289 17.875C55.8513 17.0923 55.641 16.2592 55.5905 15.3924C55.5484 15.3924 55.5063 15.4008 55.4642 15.4008C51.7361 15.4008 8.74043 15.4008 8.74043 15.4008C8.74043 15.4008 6.48503 14.9463 4.11181 16.3012L1.04009 12.531C0.838114 12.2786 0.467825 12.2449 0.215355 12.4469C-0.0371153 12.6488 -0.070778 13.0191 0.131198 13.2716L3.14401 16.9661C1.06534 18.6661 0.434162 21.4096 1.67968 25.8194C3.0346 30.6079 2.10888 39.8399 3.70786 39.8399C5.30683 39.8399 6.59443 33.9742 7.76421 30.1114C7.76421 30.1114 12.923 30.1198 14.2106 25.9456C14.2106 25.9456 30.9157 32.8465 53.8737 33.0484C53.8737 33.0484 55.0182 32.9222 55.2286 34.1509C55.4306 35.3796 56.0028 39.882 57.4419 39.8399C58.8726 39.7978 59.4028 35.1355 60.0171 31.9376C63.6611 29.5223 68.9377 25.3481 68.9377 17.572C68.9377 17.572 68.963 16.9997 69.0135 16.1918C69.0135 16.1918 69.0135 16.1918 69.005 16.2003Z" fill="white"/>
<path d="M81.9905 1.51482C81.8306 0.614344 80.0296 0 78.2287 0C76.4277 0 64.5195 0 64.5195 0C64.5195 0 59.2008 0.201976 58.7464 5.89097C58.7127 6.30334 58.6875 6.69887 58.6707 7.08599C60.2949 4.71277 62.0453 2.89499 62.483 2.44896C63.3329 1.53165 64.7468 0.614344 66.0007 0.614344C67.0106 0.614344 67.8017 1.17819 68.1635 2.15441C68.517 3.1138 69.5353 7.33846 69.6363 11.2517C69.6615 11.1928 69.6868 11.1508 69.712 11.1255C70.2001 10.6711 77.5302 5.52068 78.8009 4.65386C80.0717 3.8123 82.1588 2.4153 81.9905 1.51482Z" fill="white"/>
</svg>
