<?xml version="1.0" encoding="utf-8"?>
<!-- Generator: Adobe Illustrator 25.1.0, SVG Export Plug-In . SVG Version: 6.00 Build 0)  -->
<svg version="1.1" id="레이어_1" xmlns="http://www.w3.org/2000/svg" xmlns:xlink="http://www.w3.org/1999/xlink" x="0px"
	 y="0px" viewBox="0 0 20 20" style="enable-background:new 0 0 20 20;" xml:space="preserve">
<g id="레이어_2_1_">
	<g id="레이어_1-2">
		<path d="M8.1,1.2c-3.8,0-6.9,3.1-6.9,6.9S4.3,15,8.1,15S15,11.9,15,8.1C15,4.3,11.9,1.3,8.1,1.2 M8.1,16.2C3.6,16.2,0,12.6,0,8.1
			S3.6,0,8.1,0s8.1,3.6,8.1,8.1C16.2,12.6,12.6,16.2,8.1,16.2"/>
		<path d="M19.4,20c-0.2,0-0.3-0.1-0.4-0.2l-5.6-5.6c-0.2-0.3-0.2-0.6,0-0.9c0.2-0.2,0.6-0.2,0.9,0l5.6,5.6c0.2,0.2,0.2,0.6,0,0.9
			C19.7,19.9,19.5,20,19.4,20"/>
	</g>
</g>
</svg>
