<svg width="24" height="26" viewBox="0 0 24 26" fill="none" xmlns="http://www.w3.org/2000/svg">
<path d="M21.97 19.3958C21.97 19.7767 21.89 20.1682 21.72 20.5492C21.55 20.9301 21.33 21.2899 21.04 21.6285C20.55 22.1999 20.01 22.6125 19.4 22.8771C18.8 23.1416 18.15 23.2792 17.45 23.2792C16.43 23.2792 15.34 23.0252 14.19 22.5067C13.04 21.9882 11.89 21.2899 10.75 20.4116C9.6 19.5228 8.51 18.5387 7.47 17.4488C6.44 16.3483 5.51 15.195 4.68 13.9887C3.86 12.7824 3.2 11.5761 2.72 10.3804C2.24 9.17412 2 8.02074 2 6.92027C2 6.20074 2.12 5.51294 2.36 4.87806C2.6 4.23259 2.98 3.64003 3.51 3.11096C4.15 2.44433 4.85 2.1163 5.59 2.1163C5.87 2.1163 6.15 2.17979 6.4 2.30677C6.66 2.43375 6.89 2.62421 7.07 2.89933L9.39 6.35946C9.57 6.62399 9.7 6.86737 9.79 7.10016C9.88 7.32237 9.93 7.54458 9.93 7.74562C9.93 7.99958 9.86 8.25353 9.72 8.49691C9.59 8.74028 9.4 8.99423 9.16 9.24819L8.4 10.0841C8.29 10.2005 8.24 10.3381 8.24 10.5074C8.24 10.592 8.25 10.6661 8.27 10.7508C8.3 10.8354 8.33 10.8989 8.35 10.9624C8.53 11.3116 8.84 11.7666 9.28 12.3168C9.73 12.867 10.21 13.4279 10.73 13.9887C11.27 14.5495 11.79 15.068 12.32 15.5441C12.84 16.0097 13.27 16.3272 13.61 16.5176C13.66 16.5388 13.72 16.5705 13.79 16.6023C13.87 16.634 13.95 16.6446 14.04 16.6446C14.21 16.6446 14.34 16.5811 14.45 16.4647L15.21 15.6711C15.46 15.4066 15.7 15.2055 15.93 15.0786C16.16 14.9304 16.39 14.8563 16.64 14.8563C16.83 14.8563 17.03 14.8987 17.25 14.9939C17.47 15.0891 17.7 15.2267 17.95 15.4066L21.26 17.8932C21.52 18.0837 21.7 18.3059 21.81 18.5704C21.91 18.835 21.97 19.0995 21.97 19.3958Z" stroke="white" stroke-width="1.5" stroke-miterlimit="10"/>
<path d="M18.5 9.52333C18.5 8.88844 18.03 7.91495 17.33 7.12134C16.69 6.39122 15.84 5.81982 15 5.81982" stroke="white" stroke-width="1.5" stroke-linecap="round" stroke-linejoin="round"/>
<path d="M22 9.52331C22 5.42829 18.87 2.1163 15 2.1163" stroke="white" stroke-width="1.5" stroke-linecap="round" stroke-linejoin="round"/>
</svg>
