<svg width="215" height="108" viewBox="0 0 215 108" fill="none" xmlns="http://www.w3.org/2000/svg">
<g clip-path="url(#clip0_328_1329)">
<path d="M76.82 64H79.78V58.74H81.76C84.94 58.74 87.48 57.22 87.48 53.84C87.48 50.34 84.96 49.2 81.68 49.2H76.82V64ZM79.78 56.4V51.54H81.46C83.5 51.54 84.58 52.12 84.58 53.84C84.58 55.54 83.6 56.4 81.56 56.4H79.78ZM97.8398 64.28C101.46 64.28 103.56 62.26 103.56 57.34V49.2H100.72V57.6C100.72 60.68 99.5998 61.72 97.8398 61.72C96.0998 61.72 95.0398 60.68 95.0398 57.6V49.2H92.0798V57.34C92.0798 62.26 94.2398 64.28 97.8398 64.28ZM112.081 51.54H114.001C115.901 51.54 116.941 52.08 116.941 53.68C116.941 55.26 115.901 56.06 114.001 56.06H112.081V51.54ZM120.481 64L117.021 57.94C118.721 57.28 119.841 55.9 119.841 53.68C119.841 50.28 117.381 49.2 114.281 49.2H109.121V64H112.081V58.4H114.141L117.181 64H120.481ZM124.754 64H127.714V58.74H129.694C132.874 58.74 135.414 57.22 135.414 53.84C135.414 50.34 132.894 49.2 129.614 49.2H124.754V64ZM127.714 56.4V51.54H129.394C131.434 51.54 132.514 52.12 132.514 53.84C132.514 55.54 131.534 56.4 129.494 56.4H127.714ZM140.093 64H149.053V61.52H143.053V49.2H140.093V64ZM153.636 64H162.936V61.52H156.596V57.56H161.796V55.08H156.596V51.66H162.716V49.2H153.636V64ZM167.941 64H172.161C176.521 64 179.321 61.52 179.321 56.54C179.321 51.54 176.521 49.2 172.001 49.2H167.941V64ZM170.901 61.62V51.56H171.821C174.581 51.56 176.301 52.92 176.301 56.54C176.301 60.14 174.581 61.62 171.821 61.62H170.901ZM190.098 64.28C194.018 64.28 196.718 61.34 196.718 56.54C196.718 51.74 194.018 48.92 190.098 48.92C186.178 48.92 183.478 51.72 183.478 56.54C183.478 61.34 186.178 64.28 190.098 64.28ZM190.098 61.72C187.898 61.72 186.498 59.7 186.498 56.54C186.498 53.36 187.898 51.46 190.098 51.46C192.298 51.46 193.698 53.36 193.698 56.54C193.698 59.7 192.298 61.72 190.098 61.72ZM207.969 64.28C210.029 64.28 211.769 63.48 212.769 62.5V55.82H207.509V58.24H210.129V61.16C209.709 61.52 208.989 61.72 208.269 61.72C205.369 61.72 203.889 59.78 203.889 56.56C203.889 53.38 205.609 51.46 208.069 51.46C209.409 51.46 210.249 52 210.969 52.7L212.549 50.82C211.589 49.84 210.109 48.92 207.969 48.92C204.029 48.92 200.869 51.78 200.869 56.66C200.869 61.6 203.929 64.28 207.969 64.28Z" fill="white"/>
<g clip-path="url(#clip1_328_1329)">
<path d="M57.3922 53C56.1317 53 55.0692 52.3403 54.397 51.1409C52.5122 47.7766 57.9384 42.2594 58.1665 42.0255C58.6287 41.5217 59.415 41 60.0933 41C60.5735 41 60.9396 41.2579 61.1077 41.7256C61.4918 42.7571 62.5543 47.8006 61.6359 50.1454C61.0296 51.7226 59.1209 53 57.3922 53Z" fill="white"/>
<path d="M63.345 51.371C62.456 53.646 59.698 55.501 57.199 55.501C55.33 55.501 53.755 54.528 52.768 52.764C52.404 52.113 52.229 51.42 52.187 50.699C52.152 50.699 52.117 50.706 52.082 50.706C48.981 50.706 13.218 50.706 13.218 50.706C13.218 50.706 11.342 50.328 9.368 51.455L6.813 48.319C6.645 48.109 6.337 48.081 6.127 48.249C5.917 48.417 5.889 48.725 6.057 48.935L8.563 52.008C6.834 53.422 6.309 55.704 7.345 59.372C8.472 63.355 7.702 71.034 9.032 71.034C10.362 71.034 11.433 66.155 12.406 62.942C12.406 62.942 16.697 62.949 17.768 59.477C17.768 59.477 31.663 65.217 50.759 65.385C50.759 65.385 51.711 65.28 51.886 66.302C52.054 67.324 52.53 71.069 53.727 71.034C54.917 70.999 55.358 67.121 55.869 64.461C58.9 62.452 63.289 58.98 63.289 52.512C63.289 52.512 63.31 52.036 63.352 51.364C63.352 51.364 63.352 51.364 63.345 51.371Z" fill="white"/>
<path d="M74.146 39.156C74.013 38.407 72.515 37.896 71.017 37.896C69.519 37.896 59.614 37.896 59.614 37.896C59.614 37.896 55.19 38.064 54.812 42.796C54.784 43.139 54.763 43.468 54.749 43.79C56.1 41.816 57.556 40.304 57.92 39.933C58.627 39.17 59.803 38.407 60.846 38.407C61.686 38.407 62.344 38.876 62.645 39.688C62.939 40.486 63.786 44 63.87 47.255C63.891 47.206 63.912 47.171 63.933 47.15C64.339 46.772 70.436 42.488 71.493 41.767C72.55 41.067 74.286 39.905 74.146 39.156Z" fill="white"/>
</g>
</g>
<defs>
<clipPath id="clip0_328_1329">
<rect width="215" height="108" fill="white"/>
</clipPath>
<clipPath id="clip1_328_1329">
<rect width="70" height="35" fill="white" transform="translate(5 37)"/>
</clipPath>
</defs>
</svg>
