<svg width="100" height="104" viewBox="0 0 100 104" fill="none" xmlns="http://www.w3.org/2000/svg">
<path d="M72 67.7733V84.0787C72 90.8047 67.5 96.3077 62 96.3077H42C36.5 96.3077 32 90.8047 32 84.0787V63.6154L44.9667 63.697C47.4 63.697 49.8 64.3899 52 65.7351C54.2 67.0803 56.6 67.7733 59.0667 67.7733H72Z" stroke="#0F1729" stroke-width="6.5" stroke-linecap="round" stroke-linejoin="round"/>
<path d="M72 45.8096V67.4615H59.0667C56.6 67.4615 54.2 66.5788 52 64.8654C49.8 63.1519 47.4 62.2692 44.9667 62.2692L32 62.1654V45.8096C32 43.4212 32.8668 40.15 33.9668 38.4366L41.0334 27.4288C41.6334 26.4942 42 25.1442 42 23.7942V15.5385H62V23.7942C62 25.1442 62.3666 26.4942 62.9666 27.4288L70.0332 38.4366C71.1332 40.15 72 43.4212 72 45.8096Z" stroke="#0F1729" stroke-width="6.5" stroke-linecap="round" stroke-linejoin="round"/>
<path d="M59.7885 15.5385H44.2115C42.1365 15.5385 42 12.9231 42 9.76923C42 6.61539 42.1365 4 44.2115 4H59.7885C61.8635 4 62 6.61539 62 9.76923C62 12.9231 61.8635 15.5385 59.7885 15.5385Z" stroke="#0F1729" stroke-width="6.5" stroke-linecap="round" stroke-linejoin="round"/>
</svg>
